<?xml version="1.0" encoding="utf-8"?>
<!-- Generator: Adobe Illustrator 22.0.1, SVG Export Plug-In . SVG Version: 6.00 Build 0)  -->
<svg version="1.1" xmlns="http://www.w3.org/2000/svg" xmlns:xlink="http://www.w3.org/1999/xlink" x="0px" y="0px"
	 viewBox="0 0 1920 1080" style="enable-background:new 0 0 1920 1080;" xml:space="preserve">
<style type="text/css">
	.st0{fill:#FFD6FE;}
	.st1{fill:#FF5FED;}
	.st2{fill:#F9FFCC;}
	.st3{fill:#D2CD00;}
	.st4{fill:#FFE4DD;}
	.st5{fill:#E02B00;}
	.st6{fill:#D2FFFE;}
	.st7{fill:#00CCC9;}
	.st8{fill:#CEC5FF;}
	.st9{fill:#8973FF;}
	.st10{fill:#E3FFD9;}
	.st11{fill:#00CC2F;}
</style>
<g id="Layer_2">
</g>
<g id="Layer_1">
	<g>
		<g>
			<polygon class="st0" points="298.3,449.9 435.8,425.9 452.5,521.9 418.2,570.7 322.2,587.4 			"/>
			<path class="st1" d="M435,427.1l16.5,94.5l-33.9,48.1l-94.5,16.5l-23.6-135.5L435,427.1 M436.6,424.8l-139.5,24.3l24.3,139.5
				l97.3-17l34.8-49.5L436.6,424.8L436.6,424.8z"/>
		</g>
		<g>
			<polygon class="st0" points="410.6,529.4 452.3,522.1 418.2,570.7 417.8,570.7 			"/>
			<path class="st1" d="M450.1,523.5l-31.6,45l-6.7-38.3L450.1,523.5 M453.4,520.9l-43.9,7.6l7.5,43.3l1.7-0.3l34.8-49.5
				L453.4,520.9L453.4,520.9z"/>
		</g>
	</g>
	<g>
		<g>
			<polygon class="st2" points="88.6,761.8 301.6,703.9 342,852.5 295.1,934.4 146.5,974.8 			"/>
			<path class="st3" d="M300.9,705.1l40,147.3l-46.5,81.2l-147.3,40L89.9,762.5L300.9,705.1 M302.3,702.7L87.4,761.1L145.8,976
				l150-40.7l47.3-82.6L302.3,702.7L302.3,702.7z"/>
		</g>
		<g>
			<polygon class="st2" points="276.2,869.9 341.9,852.1 342,852.5 295.1,934.4 293.8,934.7 			"/>
			<path class="st3" d="M340.3,853.6l-45.7,79.8l-17.1-62.8L340.3,853.6 M342.6,850.9L275,869.2l18.1,66.7l2.6-0.7l47.3-82.6
				L342.6,850.9L342.6,850.9z"/>
		</g>
	</g>
	<g>
		<g>
			<polygon class="st4" points="564.5,230.1 611.4,82.1 752,126.6 719.3,229.9 662.6,261.2 			"/>
			<path class="st5" d="M612,83.3l138.7,43.9l-32.3,102l-56,30.9l-96.7-30.6L612,83.3 M610.7,80.8l-47.5,150l99.4,31.5l57.4-31.7
				l33.1-104.6L610.7,80.8L610.7,80.8z"/>
		</g>
		<g>
			<polygon class="st4" points="662.2,261 676.4,216.4 719.2,229.9 662.6,261.2 			"/>
			<path class="st5" d="M677,217.6l39.7,12.5l-52.9,29.2L677,217.6 M675.7,215.1L661,261.7l1.8,0.6l57.4-31.7l0.4-1.2L675.7,215.1
				L675.7,215.1z"/>
		</g>
	</g>
	<g>
		<g>
			<polygon class="st6" points="519.7,929.7 579,731.1 777.6,790.4 736.2,929 658.2,971.1 			"/>
			<path class="st7" d="M579.7,732.3l196.7,58.8l-41,137.2L658.1,970l-137.2-41L579.7,732.3 M578.3,729.8l-59.9,200.5l139.9,41.8
				l78.7-42.5l41.8-139.9L578.3,729.8L578.3,729.8z"/>
		</g>
		<g>
			<polygon class="st6" points="657.1,970.8 675.2,910.4 736.3,928.7 736.2,929 658.2,971.1 			"/>
			<path class="st7" d="M675.8,911.7l58.2,17.4l-75.6,40.8L675.8,911.7 M674.5,909.2l-18.6,62.3l2.5,0.7l78.7-42.5l0.5-1.7
				L674.5,909.2L674.5,909.2z"/>
		</g>
	</g>
	<g>
		<g>
			<polygon class="st8" points="96.8,115.4 342.8,92.6 358.8,264.2 291.4,345.5 119.7,361.4 			"/>
			<path class="st9" d="M341.9,93.6l15.8,170.2l-66.9,80.6l-170.2,15.8l-22.7-244L341.9,93.6 M343.7,91.5l-248,23.1l23.1,248
				l173-16.1l68-81.9L343.7,91.5L343.7,91.5z"/>
		</g>
		<g>
			<polygon class="st8" points="282.7,270.6 358.7,263.5 358.8,264.2 291.4,345.5 289.7,345.6 			"/>
			<path class="st9" d="M357.1,264.7l-66.2,79.8l-0.2,0l-6.8-73L357.1,264.7 M359.6,262.5l-78,7.3l7.2,77l3-0.3l68-81.9L359.6,262.5
				L359.6,262.5z"/>
		</g>
	</g>
	<g>
		<g>
			<polygon class="st10" points="734.7,601 836.2,324.2 1099.1,420.6 1028.3,613.7 918.1,668.2 			"/>
			<path class="st11" d="M836.8,325.5l261,95.7L1027.5,613l-109.4,54.1L736,600.4L836.8,325.5 M835.6,322.9L733.4,601.6l184.8,67.8
				l110.9-54.9l71.3-194.4L835.6,322.9L835.6,322.9z"/>
		</g>
		<g>
			<polygon class="st10" points="916.2,667.5 947.3,582.9 1028.7,612.7 1028.3,613.7 918.1,668.2 			"/>
			<path class="st11" d="M947.8,584.2l79.2,29l-109,53.9l-0.6-0.2L947.8,584.2 M946.7,581.6l-31.7,86.5l3.3,1.2l110.9-54.9l0.8-2.3
				L946.7,581.6L946.7,581.6z"/>
		</g>
	</g>
	<g>
		<g>
			<polygon class="st0" points="1386.7,510.9 1407.6,455 1496.3,414.8 1554,541.9 1426.9,599.5 			"/>
			<path class="st1" d="M1495.8,416.1l56.8,125.3l-125.3,56.8l-39.7-87.4l20.7-55.1L1495.8,416.1 M1496.8,413.4l-89.9,40.8
				l-21.3,56.6l40.8,89.9l128.9-58.5L1496.8,413.4L1496.8,413.4z"/>
		</g>
		<g>
			<polygon class="st0" points="1407.6,455 1407.9,454.9 1425.3,493.1 1386.8,510.5 			"/>
			<path class="st1" d="M1407.9,457.2l16.1,35.4l-35.4,16.1L1407.9,457.2 M1408.4,453.5l-1.6,0.7l-21.3,56.6l0.5,1.1l40.5-18.4
				L1408.4,453.5L1408.4,453.5z"/>
		</g>
	</g>
	<g>
		<g>
			<polygon class="st2" points="1614.8,243.8 1639.6,152.8 1773.4,76.4 1882.8,268.1 1691.1,377.6 			"/>
			<path class="st3" d="M1773,77.8l108.5,189.9l-189.9,108.5l-75.7-132.5l24.6-90.2L1773,77.8 M1773.7,75.1l-135,77.1l-25.1,91.8
				l77.1,135l193.4-110.4L1773.7,75.1L1773.7,75.1z"/>
		</g>
		<g>
			<polygon class="st2" points="1614.8,243.8 1639.6,152.8 1640.8,152.1 1674.1,210.5 1615,244.2 			"/>
			<path class="st3" d="M1640.5,153.6l32.3,56.5l-56.5,32.3L1640.5,153.6 M1641.2,150.8l-2.4,1.4l-25.1,91.8l0.9,1.6l60.8-34.7
				L1641.2,150.8L1641.2,150.8z"/>
		</g>
	</g>
	<g>
		<g>
			<polygon class="st4" points="1645.8,973 1651.6,864.8 1698.6,820.3 1801.3,825.7 1793.1,980.8 			"/>
			<path class="st5" d="M1699,821.3l101.3,5.4l-8.1,153.1l-145.3-7.7l5.7-106.8L1699,821.3 M1698.2,819.3l-47.6,45.1l-5.8,109.6
				l149.3,7.9l8.3-157.1L1698.2,819.3L1698.2,819.3z"/>
		</g>
		<g>
			<polygon class="st4" points="1651.7,864.7 1698.6,820.3 1699,820.3 1696.5,867.1 			"/>
			<path class="st5" d="M1697.9,822.3l-2.3,43.7l-41.5-2.2L1697.9,822.3 M1698.2,819.3l-47.6,45.1l-0.1,1.3l46.9,2.5l2.6-48.8
				L1698.2,819.3L1698.2,819.3z"/>
		</g>
	</g>
	<g>
		<g>
			<polygon class="st6" points="1203.5,276.5 1208.8,132 1273.8,71.6 1418.3,77 1410.7,284.1 			"/>
			<path class="st7" d="M1274.1,72.7l143.1,5.3l-7.5,205.2l-205.2-7.5l5.3-143.1L1274.1,72.7 M1273.4,70.6l-65.5,60.9l-5.4,145.9
				l209.2,7.7l7.7-209.2L1273.4,70.6L1273.4,70.6z"/>
		</g>
		<g>
			<polygon class="st6" points="1208.8,132.3 1208.8,132 1273.8,71.6 1274.9,71.7 1272.6,134.6 			"/>
			<path class="st7" d="M1273.9,72.9l-2.2,60.7l-60.7-2.2L1273.9,72.9 M1273.4,70.6l-65.5,60.9l-0.1,1.7l65.8,2.4l2.4-64.9
				L1273.4,70.6L1273.4,70.6z"/>
		</g>
	</g>
	<g>
		<g>
			<polygon class="st8" points="1057.1,846.6 1102,751 1264.1,692.4 1348,924.8 1115.6,1008.7 			"/>
			<path class="st9" d="M1263.5,693.7l83.2,230.5l-230.5,83.2l-58-160.8l44.5-94.9L1263.5,693.7 M1264.7,691.2l-163.5,59l-45.2,96.3
				l59,163.5l234.3-84.5L1264.7,691.2L1264.7,691.2z"/>
		</g>
		<g>
			<polygon class="st8" points="1057.1,846.6 1102,751 1103.5,750.4 1129.1,821.3 1057.3,847.2 			"/>
			<path class="st9" d="M1102.9,751.7l24.9,69l-69.2,25l44.1-93.9L1102.9,751.7 M1104.1,749.1l-2.9,1l-45.2,96.3l0.7,1.9l73.7-26.6
				L1104.1,749.1L1104.1,749.1z"/>
		</g>
	</g>
</g>
</svg>
